<?xml version="1.0" encoding="UTF-8"?>
<svg xmlns="http://www.w3.org/2000/svg" xmlns:xlink="http://www.w3.org/1999/xlink" width="200px" height="51px" viewBox="0 0 198 51" version="1.1">
<g id="surface1">
<path style=" stroke:none;fill-rule:nonzero;fill:rgb(42.745098%,70.196078%,24.705882%);fill-opacity:1;" d="M 46.542969 2.992188 C 45.863281 4.675781 44.921875 6.304688 43.820312 7.773438 C 34.089844 -2.363281 18.023438 -2.625 7.976562 7.144531 C -2.070312 16.914062 -2.382812 33.035156 7.347656 43.121094 C 7.664062 43.488281 8.03125 43.804688 8.394531 44.121094 L 9.335938 44.960938 C 20.011719 53.992188 36.023438 52.628906 45.023438 41.914062 C 48.476562 37.816406 50.570312 32.667969 50.9375 27.3125 C 51.671875 20.957031 49.734375 12.761719 46.542969 2.992188 Z M 12.058594 44.382812 C 11.324219 45.328125 9.964844 45.433594 9.023438 44.695312 C 8.082031 43.960938 7.976562 42.597656 8.710938 41.652344 C 9.441406 40.707031 10.804688 40.601562 11.746094 41.335938 C 12.632812 42.070312 12.792969 43.4375 12.058594 44.382812 Z M 46.386719 36.765625 C 40.160156 45.117188 26.761719 42.28125 18.234375 42.703125 C 18.234375 42.703125 16.714844 42.804688 15.199219 43.015625 C 15.199219 43.015625 15.773438 42.753906 16.507812 42.492188 C 22.523438 40.390625 25.351562 39.96875 29.011719 38.078125 C 35.867188 34.558594 42.722656 26.839844 44.082031 18.855469 C 41.464844 26.523438 33.511719 33.140625 26.292969 35.820312 C 21.320312 37.660156 12.371094 39.445312 12.371094 39.445312 L 12.007812 39.234375 C 5.9375 36.242188 5.726562 23.003906 16.820312 18.75 C 21.6875 16.859375 26.292969 17.910156 31.578125 16.648438 C 37.175781 15.335938 43.664062 11.136719 46.28125 5.621094 C 49.210938 14.496094 52.769531 28.257812 46.386719 36.765625 Z M 46.386719 36.765625 "/>
<path style=" stroke:none;fill-rule:nonzero;fill:rgb(42.745098%,70.196078%,24.705882%);fill-opacity:1;" d="M 65.328125 35.503906 C 64.648438 35.085938 64.230469 34.351562 64.28125 33.5625 C 64.28125 32.300781 65.273438 31.25 66.53125 31.25 C 66.53125 31.25 66.53125 31.25 66.582031 31.25 C 67.003906 31.25 67.421875 31.355469 67.785156 31.566406 C 69.878906 33.035156 72.339844 33.824219 74.851562 33.929688 C 77.257812 33.929688 78.671875 32.878906 78.671875 31.25 L 78.671875 31.144531 C 78.671875 29.203125 76.054688 28.574219 73.175781 27.679688 C 69.566406 26.628906 65.484375 25.160156 65.484375 20.429688 L 65.484375 20.328125 C 65.484375 15.652344 69.355469 12.816406 74.222656 12.816406 C 76.945312 12.867188 79.558594 13.550781 81.96875 14.8125 C 82.804688 15.230469 83.328125 16.019531 83.328125 16.964844 C 83.328125 18.226562 82.28125 19.277344 81.027344 19.277344 L 80.972656 19.277344 C 80.605469 19.277344 80.242188 19.171875 79.875 19.011719 C 78.09375 18.015625 76.160156 17.4375 74.117188 17.332031 C 71.921875 17.332031 70.664062 18.382812 70.664062 19.75 L 70.664062 19.855469 C 70.664062 21.691406 73.332031 22.425781 76.210938 23.371094 C 79.820312 24.476562 83.851562 26.15625 83.851562 30.570312 L 83.851562 30.671875 C 83.851562 35.875 79.820312 38.445312 74.746094 38.445312 C 71.398438 38.394531 68.101562 37.398438 65.328125 35.503906 Z M 65.328125 35.503906 "/>
<path style=" stroke:none;fill-rule:nonzero;fill:rgb(42.745098%,70.196078%,24.705882%);fill-opacity:1;" d="M 85.945312 15.703125 C 85.890625 14.179688 87.148438 12.921875 88.664062 12.867188 L 88.71875 12.867188 C 90.289062 12.867188 91.542969 14.128906 91.542969 15.703125 L 91.542969 17.386719 C 93.375 14.8125 95.9375 12.761719 99.914062 12.761719 C 105.671875 12.761719 111.324219 17.332031 111.324219 25.578125 L 111.324219 25.683594 C 111.324219 33.878906 105.722656 38.5 99.914062 38.5 C 95.835938 38.5 93.269531 36.449219 91.542969 34.140625 L 91.542969 42.859375 C 91.542969 44.433594 90.289062 45.695312 88.71875 45.695312 C 87.199219 45.695312 85.945312 44.433594 85.945312 42.910156 Z M 105.671875 25.683594 L 105.671875 25.578125 C 105.671875 20.800781 102.480469 17.699219 98.660156 17.699219 C 94.839844 17.699219 91.492188 20.902344 91.492188 25.578125 L 91.492188 25.683594 C 91.492188 30.410156 94.839844 33.5625 98.660156 33.5625 C 102.480469 33.5625 105.671875 30.570312 105.671875 25.683594 Z M 105.671875 25.683594 "/>
<path style=" stroke:none;fill-rule:nonzero;fill:rgb(42.745098%,70.196078%,24.705882%);fill-opacity:1;" d="M 113.519531 15.703125 C 113.46875 14.179688 114.722656 12.921875 116.242188 12.867188 L 116.292969 12.867188 C 117.863281 12.867188 119.121094 14.128906 119.121094 15.703125 L 119.121094 17.070312 C 119.382812 14.96875 122.835938 12.867188 125.292969 12.867188 C 126.707031 12.761719 127.964844 13.8125 128.066406 15.230469 C 128.066406 15.390625 128.066406 15.496094 128.066406 15.652344 C 128.066406 17.015625 127.125 18.171875 125.816406 18.382812 C 121.789062 19.066406 119.066406 22.585938 119.066406 27.46875 L 119.066406 35.609375 C 119.066406 37.1875 117.8125 38.394531 116.242188 38.394531 C 114.722656 38.394531 113.46875 37.1875 113.46875 35.664062 C 113.46875 35.664062 113.46875 35.664062 113.46875 35.609375 Z M 113.519531 15.703125 "/>
<path style=" stroke:none;fill-rule:nonzero;fill:rgb(42.745098%,70.196078%,24.705882%);fill-opacity:1;" d="M 130.316406 15.757812 C 130.265625 14.234375 131.519531 12.972656 133.039062 12.921875 L 133.089844 12.921875 C 134.660156 12.921875 135.917969 14.179688 135.917969 15.757812 L 135.917969 35.664062 C 135.917969 37.238281 134.660156 38.445312 133.089844 38.445312 C 131.519531 38.445312 130.316406 37.1875 130.316406 35.664062 Z M 130.316406 15.757812 "/>
<path style=" stroke:none;fill-rule:nonzero;fill:rgb(42.745098%,70.196078%,24.705882%);fill-opacity:1;" d="M 138.792969 15.757812 C 138.742188 14.234375 140 12.972656 141.515625 12.921875 L 141.566406 12.921875 C 143.136719 12.921875 144.394531 14.179688 144.394531 15.757812 L 144.394531 16.914062 C 146.066406 14.285156 149 12.761719 152.085938 12.867188 C 157.632812 12.867188 160.824219 16.597656 160.824219 22.324219 L 160.824219 35.609375 C 160.875 37.132812 159.671875 38.34375 158.15625 38.394531 C 158.101562 38.394531 158.101562 38.394531 158.050781 38.394531 C 156.535156 38.445312 155.277344 37.1875 155.226562 35.664062 L 155.226562 24.054688 C 155.226562 20.222656 153.339844 18.015625 149.941406 18.015625 C 146.695312 18.015625 144.394531 20.328125 144.394531 24.160156 L 144.394531 35.664062 C 144.394531 37.238281 143.136719 38.5 141.566406 38.5 C 140 38.5 138.742188 37.238281 138.742188 35.664062 Z M 138.792969 15.757812 "/>
<path style=" stroke:none;fill-rule:nonzero;fill:rgb(42.745098%,70.196078%,24.705882%);fill-opacity:1;" d="M 185.628906 12.816406 C 184.058594 12.816406 182.800781 14.078125 182.800781 15.652344 L 182.800781 17.332031 C 180.96875 14.757812 178.40625 12.710938 174.429688 12.710938 C 168.671875 12.710938 163.023438 17.28125 163.023438 25.527344 L 163.023438 25.632812 C 163.023438 33.824219 168.621094 38.445312 174.429688 38.445312 C 178.511719 38.445312 181.074219 36.398438 182.800781 34.140625 C 182.539062 38.605469 179.820312 40.914062 175.058594 40.914062 C 172.441406 40.914062 169.824219 40.285156 167.523438 38.972656 C 167.207031 38.816406 166.894531 38.761719 166.527344 38.761719 C 165.21875 38.761719 164.171875 39.761719 164.121094 41.074219 C 164.121094 42.070312 164.75 43.015625 165.691406 43.332031 C 168.671875 44.800781 171.917969 45.539062 175.214844 45.539062 C 179.660156 45.539062 183.117188 44.488281 185.3125 42.230469 C 187.355469 40.179688 188.453125 37.082031 188.453125 32.933594 L 188.453125 15.703125 C 188.503906 14.128906 187.25 12.867188 185.679688 12.816406 C 185.679688 12.816406 185.628906 12.816406 185.628906 12.816406 Z M 175.738281 33.5625 C 171.867188 33.5625 168.726562 30.515625 168.726562 25.632812 L 168.726562 25.527344 C 168.726562 20.746094 171.917969 17.648438 175.738281 17.648438 C 179.558594 17.648438 182.90625 20.851562 182.90625 25.527344 L 182.90625 25.632812 C 182.957031 30.359375 179.609375 33.5625 175.738281 33.5625 Z M 175.738281 33.5625 "/>
<path style=" stroke:none;fill-rule:nonzero;fill:rgb(42.745098%,70.196078%,24.705882%);fill-opacity:1;" d="M 135.96875 6.09375 C 135.96875 7.667969 134.714844 8.929688 133.144531 8.929688 C 131.574219 8.929688 130.316406 7.667969 130.316406 6.09375 C 130.316406 4.515625 131.574219 3.257812 133.144531 3.257812 C 134.660156 3.203125 135.917969 4.464844 135.96875 5.988281 C 135.96875 6.039062 135.96875 6.039062 135.96875 6.09375 Z M 135.96875 6.09375 "/>
<path style=" stroke:none;fill-rule:nonzero;fill:rgb(42.745098%,70.196078%,24.705882%);fill-opacity:1;" d="M 194.890625 18.75 C 193.320312 18.75 192.011719 17.4375 192.011719 15.863281 C 192.011719 14.285156 193.320312 12.972656 194.890625 12.972656 C 196.460938 12.972656 197.765625 14.285156 197.765625 15.863281 C 197.765625 17.4375 196.460938 18.75 194.890625 18.75 Z M 194.890625 13.394531 C 193.527344 13.394531 192.429688 14.496094 192.429688 15.863281 C 192.429688 17.226562 193.527344 18.332031 194.890625 18.332031 C 196.25 18.332031 197.347656 17.226562 197.347656 15.863281 C 197.347656 14.496094 196.300781 13.394531 194.941406 13.394531 Z M 195.675781 17.488281 L 194.835938 16.175781 L 194.261719 16.175781 L 194.261719 17.488281 L 193.789062 17.488281 L 193.789062 14.179688 L 195.152344 14.179688 C 195.726562 14.128906 196.199219 14.601562 196.25 15.179688 C 196.25 15.652344 195.882812 16.070312 195.414062 16.175781 L 196.300781 17.488281 Z M 195.097656 14.601562 L 194.261719 14.601562 L 194.261719 15.757812 L 195.152344 15.757812 C 195.464844 15.757812 195.726562 15.496094 195.726562 15.179688 C 195.726562 14.863281 195.464844 14.601562 195.097656 14.601562 Z M 195.097656 14.601562 "/>
<path style=" stroke:none;fill-rule:nonzero;fill:rgb(42.745098%,70.196078%,24.705882%);fill-opacity:1;" d="M 45.023438 41.914062 C 48.476562 37.816406 50.570312 32.667969 50.9375 27.3125 "/>
<path style=" stroke:none;fill-rule:nonzero;fill:rgb(100%,100%,100%);fill-opacity:1;" d="M 46.386719 36.765625 C 40.160156 45.117188 26.761719 42.28125 18.234375 42.703125 C 18.234375 42.703125 16.714844 42.804688 15.199219 43.015625 C 15.199219 43.015625 15.773438 42.753906 16.507812 42.492188 C 22.523438 40.390625 25.351562 39.96875 29.011719 38.078125 C 35.867188 34.558594 42.722656 26.839844 44.082031 18.855469 C 41.464844 26.523438 33.511719 33.140625 26.292969 35.820312 C 21.320312 37.660156 12.371094 39.445312 12.371094 39.445312 L 12.007812 39.234375 C 5.9375 36.242188 5.726562 23.003906 16.820312 18.75 C 21.6875 16.859375 26.292969 17.910156 31.578125 16.648438 C 37.175781 15.335938 43.664062 11.136719 46.28125 5.621094 C 49.210938 14.496094 52.769531 28.257812 46.386719 36.765625 Z M 46.386719 36.765625 "/>
<path style=" stroke:none;fill-rule:nonzero;fill:rgb(100%,100%,100%);fill-opacity:1;" d="M 12.058594 44.382812 C 11.324219 45.328125 9.964844 45.433594 9.023438 44.695312 C 8.082031 43.960938 7.976562 42.597656 8.710938 41.652344 C 9.441406 40.707031 10.804688 40.601562 11.746094 41.335938 C 12.632812 42.070312 12.792969 43.4375 12.058594 44.382812 Z M 12.058594 44.382812 "/>
</g>
</svg>
