<?xml version="1.0" standalone="no"?>
<!DOCTYPE svg PUBLIC "-//W3C//DTD SVG 1.0//EN" "http://www.w3.org/TR/2001/REC-SVG-20010904/DTD/svg10.dtd">
<svg xmlns="http://www.w3.org/2000/svg" xmlns:xlink="http://www.w3.org/1999/xlink" id="body_1" width="307" height="230">

<g transform="matrix(0.81324506 0 0 0.81324506 -0 75.51695)">
    <path d="M88.5 5.7C 87.2 8.9 85.4 12 83.3 14.8C 64.7 -4.5 34 -5 14.8 13.6C -4.4000006 32.2 -5 62.9 13.6 82.1C 14.200001 82.799995 14.900001 83.4 15.6 84L15.6 84L17.4 85.6C 37.8 102.8 68.4 100.2 85.6 79.799995C 92.2 72 96.2 62.2 96.9 52C 98.3 39.9 94.6 24.3 88.5 5.7zM22.6 84.5C 21.2 86.3 18.6 86.5 16.8 85.1C 14.999998 83.7 14.799999 81.1 16.199999 79.299995C 17.599998 77.49999 20.199999 77.299995 22 78.7C 23.7 80.1 24 82.7 22.6 84.5zM88.2 70C 76.3 85.9 50.7 80.5 34.4 81.3C 34.4 81.3 31.500002 81.5 28.600002 81.9C 28.600002 81.9 29.700003 81.4 31.100002 80.9C 42.600002 76.9 48 76.1 55 72.5C 68.1 65.8 81.2 51.1 83.8 35.9C 78.8 50.5 63.600002 63.100002 49.800003 68.2C 40.300003 71.7 23.200003 75.1 23.200003 75.1L23.200003 75.1L22.500002 74.7C 10.900002 69 10.500002 43.799995 31.7 35.699997C 41 32.1 49.800003 34.1 59.9 31.699997C 70.6 29.2 83 21.2 88 10.7C 93.6 27.6 100.4 53.8 88.2 70z" stroke="none" fill="#6DB33F" fill-rule="nonzero" />
    <path d="M124.4 67.6C 123.1 66.799995 122.3 65.4 122.4 63.899998C 122.4 61.499996 124.3 59.499996 126.700005 59.499996C 126.700005 59.499996 126.700005 59.499996 126.8 59.499996C 127.600006 59.499996 128.40001 59.699997 129.1 60.099995C 133.1 62.899994 137.8 64.399994 142.6 64.59999C 147.20001 64.59999 149.90001 62.59999 149.90001 59.499992L149.90001 59.499992L149.90001 59.29999C 149.90001 55.59999 144.90001 54.39999 139.40001 52.699993C 132.50002 50.699993 124.70001 47.899994 124.70001 38.899994L124.70001 38.899994L124.70001 38.699993C 124.70001 29.799994 132.1 24.399994 141.40001 24.399994C 146.6 24.499994 151.6 25.799994 156.20001 28.199993C 157.80002 28.999992 158.80002 30.499992 158.80002 32.29999C 158.80002 34.699993 156.80002 36.699993 154.40002 36.699993L154.40002 36.699993L154.30002 36.699993C 153.60002 36.699993 152.90002 36.499992 152.20001 36.199993C 148.80002 34.29999 145.1 33.199993 141.20001 32.999992C 137.00002 32.999992 134.6 34.999992 134.6 37.59999L134.6 37.59999L134.6 37.79999C 134.6 41.29999 139.70001 42.699993 145.20001 44.499992C 152.1 46.59999 159.80002 49.79999 159.80002 58.199993L159.80002 58.199993L159.80002 58.399994C 159.80002 68.299995 152.10002 73.2 142.40002 73.2C 136 73.1 129.7 71.2 124.4 67.6z" stroke="none" fill="#6DB33F" fill-rule="nonzero" />
    <path d="M163.8 29.9C 163.7 27 166.1 24.599998 169 24.5L169 24.5L169.1 24.5C 172.1 24.5 174.5 26.9 174.5 29.9L174.5 29.9L174.5 33.1C 178 28.199999 182.9 24.3 190.5 24.3C 201.5 24.3 212.3 33 212.3 48.699997L212.3 48.699997L212.3 48.899998C 212.3 64.5 201.6 73.299995 190.5 73.299995C 182.7 73.299995 177.8 69.399994 174.5 64.99999L174.5 64.99999L174.5 81.59999C 174.5 84.59999 172.1 86.99999 169.1 86.99999C 166.20001 86.99999 163.8 84.59999 163.8 81.69999L163.8 81.69999L163.8 81.59999L163.8 29.9zM201.5 48.9L201.5 48.7C 201.5 39.6 195.4 33.7 188.1 33.7C 180.80002 33.7 174.40001 39.8 174.40001 48.7L174.40001 48.7L174.40001 48.9C 174.40001 57.9 180.8 63.9 188.1 63.9C 195.40001 63.9 201.5 58.2 201.5 48.9z" stroke="none" fill="#6DB33F" fill-rule="nonzero" />
    <path d="M216.5 29.9C 216.4 27 218.8 24.599998 221.7 24.5L221.7 24.5L221.8 24.5C 224.8 24.5 227.2 26.9 227.2 29.9L227.2 29.9L227.2 32.5C 227.7 28.5 234.3 24.5 239 24.5C 241.7 24.3 244.1 26.3 244.3 29C 244.3 29.3 244.3 29.5 244.3 29.8C 244.3 32.399998 242.5 34.6 240 35C 232.3 36.3 227.1 43 227.1 52.3L227.1 52.3L227.1 67.8C 227.1 70.8 224.70001 73.100006 221.70001 73.100006C 218.80002 73.100006 216.40001 70.8 216.40001 67.90001C 216.40001 67.90001 216.40001 67.90001 216.40001 67.80001L216.40001 67.80001L216.5 29.9z" stroke="none" fill="#6DB33F" fill-rule="nonzero" />
    <path d="M248.6 30C 248.5 27.1 250.90001 24.7 253.8 24.6L253.8 24.6L253.90001 24.6C 256.90002 24.6 259.30002 27 259.30002 30L259.30002 30L259.30002 67.9C 259.30002 70.9 256.90002 73.200005 253.90002 73.200005C 250.90002 73.200005 248.60002 70.8 248.60002 67.9L248.60002 67.9L248.6 30z" stroke="none" fill="#6DB33F" fill-rule="nonzero" />
    <path d="M264.8 30C 264.69998 27.1 267.09998 24.7 270 24.6L270 24.6L270.1 24.6C 273.1 24.6 275.5 27 275.5 30L275.5 30L275.5 32.2C 278.7 27.2 284.3 24.300001 290.2 24.5C 300.80002 24.5 306.90002 31.6 306.90002 42.5L306.90002 42.5L306.90002 67.8C 307.00003 70.700005 304.7 73 301.80002 73.100006C 301.7 73.100006 301.7 73.100006 301.6 73.100006C 298.7 73.200005 296.30002 70.8 296.2 67.90001L296.2 67.90001L296.2 67.80001L296.2 45.80001C 296.2 38.50001 292.6 34.30001 286.1 34.30001C 279.9 34.30001 275.5 38.700012 275.5 46.00001L275.5 46.00001L275.5 67.90001C 275.5 70.90001 273.1 73.30001 270.1 73.30001C 267.1 73.30001 264.7 70.90001 264.7 67.90001L264.7 67.90001L264.8 30z" stroke="none" fill="#6DB33F" fill-rule="nonzero" />
    <path d="M354.3 24.4C 351.3 24.4 348.9 26.8 348.9 29.8L348.9 29.8L348.9 33C 345.4 28.1 340.5 24.2 332.9 24.2C 321.9 24.2 311.1 32.9 311.1 48.6L311.1 48.6L311.1 48.8C 311.1 64.4 321.80002 73.2 332.9 73.2C 340.69998 73.2 345.6 69.299995 348.9 65C 348.4 73.5 343.19998 77.9 334.1 77.9C 329.1 77.9 324.1 76.700005 319.7 74.200005C 319.1 73.9 318.5 73.8 317.80002 73.8C 315.30002 73.8 313.30002 75.700005 313.2 78.200005C 313.2 80.100006 314.40002 81.9 316.2 82.50001C 321.90002 85.30001 328.1 86.700005 334.40002 86.700005C 342.90002 86.700005 349.50003 84.700005 353.7 80.4C 357.6 76.5 359.7 70.6 359.7 62.7L359.7 62.7L359.7 29.9C 359.80002 26.9 357.40002 24.5 354.40002 24.4C 354.4 24.4 354.3 24.4 354.3 24.4zM335.4 63.9C 328 63.9 322 58.100002 322 48.800003L322 48.800003L322 48.600002C 322 39.5 328.1 33.600002 335.4 33.600002C 342.69998 33.600002 349.1 39.7 349.1 48.600002L349.1 48.600002L349.1 48.800003C 349.2 57.8 342.8 63.9 335.4 63.9z" stroke="none" fill="#6DB33F" fill-rule="nonzero" />
    <path d="M259.4 11.6C 259.4 14.6 257 17 254 17C 251 17 248.6 14.6 248.6 11.6C 248.6 8.6 251 6.2000003 254 6.2000003C 256.9 6.1000004 259.3 8.5 259.4 11.4C 259.4 11.5 259.4 11.5 259.4 11.6z" stroke="none" fill="#6DB33F" fill-rule="nonzero" />
    <path d="M372 35.7C 369 35.7 366.5 33.2 366.5 30.2C 366.5 27.2 369 24.7 372 24.7C 375 24.7 377.5 27.2 377.5 30.2C 377.5 33.2 375 35.7 372 35.7zM372 25.5C 369.4 25.5 367.3 27.6 367.3 30.2C 367.3 32.800003 369.4 34.9 372 34.9C 374.6 34.9 376.7 32.800003 376.7 30.2C 376.7 27.599998 374.7 25.5 372.1 25.5L372.1 25.5L372 25.5zM373.5 33.3L371.9 30.8L370.8 30.8L370.8 33.3L369.9 33.3L369.9 27L372.5 27C 373.6 26.9 374.5 27.8 374.6 28.9C 374.6 29.8 373.9 30.6 373 30.8L373 30.8L374.7 33.3L373.5 33.3zM372.4 27.8L370.8 27.8L370.8 30L372.5 30C 373.1 30 373.6 29.5 373.6 28.9C 373.6 28.3 373.1 27.8 372.4 27.8z" stroke="none" fill="#6DB33F" fill-rule="nonzero" />
    <path d="M85.6 79.8C 92.2 72 96.2 62.2 96.9 52" stroke="none" fill="#6DB33F" fill-rule="nonzero" />
    <path d="M88.2 70C 76.3 85.9 50.7 80.5 34.4 81.3C 34.4 81.3 31.500002 81.5 28.600002 81.9C 28.600002 81.9 29.700003 81.4 31.100002 80.9C 42.600002 76.9 48 76.1 55 72.5C 68.1 65.8 81.2 51.1 83.8 35.9C 78.8 50.5 63.600002 63.100002 49.800003 68.2C 40.300003 71.7 23.200003 75.1 23.200003 75.1L23.200003 75.1L22.500002 74.7C 10.900002 69 10.500002 43.799995 31.7 35.699997C 41 32.1 49.800003 34.1 59.9 31.699997C 70.6 29.2 83 21.2 88 10.7C 93.6 27.6 100.4 53.8 88.2 70z" stroke="none" fill="#FFFFFF" fill-rule="nonzero" />
    <path d="M22.6 84.5C 21.2 86.3 18.6 86.5 16.8 85.1C 14.999998 83.7 14.799999 81.1 16.199999 79.299995C 17.599998 77.49999 20.199999 77.299995 22 78.7C 23.7 80.1 24 82.7 22.6 84.5z" stroke="none" fill="#FFFFFF" fill-rule="nonzero" />
</g>
</svg>